<svg width="159" height="159" viewBox="0 0 159 159" fill="none" xmlns="http://www.w3.org/2000/svg">
<path d="M52.8295 125.47C47.1635 125.483 41.6436 123.673 37.0847 120.309C32.5258 116.944 29.1697 112.203 27.5117 106.785C25.8537 101.367 25.9819 95.5592 27.8771 90.2196C29.7724 84.88 33.3344 80.2913 38.0372 77.1311C35.1377 73.5082 33.3959 69.0965 33.0383 64.47C32.6807 59.8435 33.724 55.2166 36.0324 51.1912C38.3407 47.1658 41.8073 43.9285 45.9809 41.9004C50.1545 39.8724 54.8419 39.1475 59.4332 39.8202V39.6221C59.4332 34.3679 61.5204 29.3289 65.2357 25.6136C68.951 21.8983 73.99 19.811 79.2442 19.811C84.4984 19.811 89.5375 21.8983 93.2528 25.6136C96.9681 29.3289 99.0553 34.3679 99.0553 39.6221V39.8863C103.647 39.2136 108.334 39.9384 112.508 41.9665C116.681 43.9945 120.148 47.2319 122.456 51.2572C124.764 55.2826 125.808 59.9096 125.45 64.536C125.093 69.1625 123.351 73.5742 120.451 77.1971C125.125 80.368 128.659 84.9532 130.535 90.28C132.411 95.6068 132.531 101.395 130.876 106.794C129.221 112.194 125.88 116.921 121.341 120.283C116.803 123.644 111.307 125.462 105.659 125.47H52.8295Z" stroke="#FFEDCB" stroke-width="13.2074" stroke-linecap="round" stroke-linejoin="round"/>
<path d="M79.2443 125.47V145.281" stroke="#FFEDCB" stroke-width="13.2074" stroke-linecap="round" stroke-linejoin="round"/>
</svg>
